<mxfile host="app.diagrams.net" modified="2020-09-17T11:10:10.489Z" agent="5.0 (Windows NT 10.0; Win64; x64) AppleWebKit/537.36 (KHTML, like Gecko) Chrome/85.0.4183.102 Safari/537.36" etag="D-mryIkfmXLZOnbeAPbf" version="13.6.10" type="github">
  <diagram id="J9oQ7YEbLdYVICq-9z-E" name="Page-1">
    <mxGraphModel dx="1888" dy="580" grid="0" gridSize="10" guides="1" tooltips="1" connect="1" arrows="1" fold="1" page="1" pageScale="1" pageWidth="850" pageHeight="1100" math="0" shadow="0">
      <root>
        <mxCell id="0" />
        <mxCell id="1" parent="0" />
        <mxCell id="SAiguCN7g2tJS7Ev6xJh-11" value="" style="shape=image;html=1;verticalAlign=top;verticalLabelPosition=bottom;labelBackgroundColor=#ffffff;imageAspect=0;aspect=fixed;image=https://cdn0.iconfinder.com/data/icons/elasto-online-store/26/00-ELASTOFONT-STORE-READY_bank-128.png" parent="1" vertex="1">
          <mxGeometry x="11" y="364.25" width="41" height="41" as="geometry" />
        </mxCell>
        <mxCell id="SAiguCN7g2tJS7Ev6xJh-12" value="" style="shape=image;html=1;verticalAlign=top;verticalLabelPosition=bottom;labelBackgroundColor=#ffffff;imageAspect=0;aspect=fixed;image=https://cdn0.iconfinder.com/data/icons/elasto-online-store/26/00-ELASTOFONT-STORE-READY_bank-128.png" parent="1" vertex="1">
          <mxGeometry x="225" y="314" width="41" height="41" as="geometry" />
        </mxCell>
        <mxCell id="SAiguCN7g2tJS7Ev6xJh-13" value="" style="shape=image;html=1;verticalAlign=top;verticalLabelPosition=bottom;labelBackgroundColor=#ffffff;imageAspect=0;aspect=fixed;image=https://cdn3.iconfinder.com/data/icons/google-material-design-icons/48/ic_payment_48px-128.png" parent="1" vertex="1">
          <mxGeometry x="99" y="358" width="50.5" height="50.5" as="geometry" />
        </mxCell>
        <mxCell id="SAiguCN7g2tJS7Ev6xJh-14" value="ACH" style="text;html=1;align=center;verticalAlign=middle;resizable=0;points=[];autosize=1;" parent="1" vertex="1">
          <mxGeometry x="11" y="409" width="36" height="18" as="geometry" />
        </mxCell>
        <mxCell id="SAiguCN7g2tJS7Ev6xJh-15" value="CEFT" style="text;html=1;align=center;verticalAlign=middle;resizable=0;points=[];autosize=1;" parent="1" vertex="1">
          <mxGeometry x="225" y="358" width="41" height="18" as="geometry" />
        </mxCell>
        <mxCell id="SAiguCN7g2tJS7Ev6xJh-16" value="CC/DC" style="text;html=1;align=center;verticalAlign=middle;resizable=0;points=[];autosize=1;" parent="1" vertex="1">
          <mxGeometry x="98.5" y="406.25" width="48" height="18" as="geometry" />
        </mxCell>
        <mxCell id="SAiguCN7g2tJS7Ev6xJh-20" value="CRM-US" style="rounded=1;whiteSpace=wrap;html=1;" parent="1" vertex="1">
          <mxGeometry x="25" y="205" width="108.5" height="42" as="geometry" />
        </mxCell>
        <mxCell id="SAiguCN7g2tJS7Ev6xJh-21" value="CRM-CA" style="rounded=1;whiteSpace=wrap;html=1;" parent="1" vertex="1">
          <mxGeometry x="197" y="208" width="108.5" height="42" as="geometry" />
        </mxCell>
        <mxCell id="SAiguCN7g2tJS7Ev6xJh-22" value="CBTS-US" style="rounded=1;whiteSpace=wrap;html=1;" parent="1" vertex="1">
          <mxGeometry x="369" y="205" width="108.5" height="42" as="geometry" />
        </mxCell>
        <mxCell id="SAiguCN7g2tJS7Ev6xJh-23" value="CBTS-CA" style="rounded=1;whiteSpace=wrap;html=1;" parent="1" vertex="1">
          <mxGeometry x="555" y="205" width="108.5" height="42" as="geometry" />
        </mxCell>
        <mxCell id="SAiguCN7g2tJS7Ev6xJh-24" value="CBTS-UK" style="rounded=1;whiteSpace=wrap;html=1;" parent="1" vertex="1">
          <mxGeometry x="734" y="202" width="108.5" height="42" as="geometry" />
        </mxCell>
        <mxCell id="SAiguCN7g2tJS7Ev6xJh-26" value="&lt;font style=&quot;font-size: 19px&quot;&gt;Payment Options&lt;/font&gt;" style="rounded=0;whiteSpace=wrap;html=1;" parent="1" vertex="1">
          <mxGeometry x="303" y="32" width="228" height="60" as="geometry" />
        </mxCell>
        <mxCell id="SAiguCN7g2tJS7Ev6xJh-30" value="" style="endArrow=none;html=1;" parent="1" edge="1">
          <mxGeometry width="50" height="50" relative="1" as="geometry">
            <mxPoint x="81" y="148" as="sourcePoint" />
            <mxPoint x="786" y="148" as="targetPoint" />
          </mxGeometry>
        </mxCell>
        <mxCell id="SAiguCN7g2tJS7Ev6xJh-31" value="" style="endArrow=none;html=1;" parent="1" edge="1">
          <mxGeometry width="50" height="50" relative="1" as="geometry">
            <mxPoint x="417" y="205" as="sourcePoint" />
            <mxPoint x="417" y="147" as="targetPoint" />
          </mxGeometry>
        </mxCell>
        <mxCell id="SAiguCN7g2tJS7Ev6xJh-32" value="" style="endArrow=none;html=1;" parent="1" edge="1">
          <mxGeometry width="50" height="50" relative="1" as="geometry">
            <mxPoint x="81" y="205" as="sourcePoint" />
            <mxPoint x="81" y="147" as="targetPoint" />
          </mxGeometry>
        </mxCell>
        <mxCell id="SAiguCN7g2tJS7Ev6xJh-33" value="" style="endArrow=none;html=1;" parent="1" edge="1">
          <mxGeometry width="50" height="50" relative="1" as="geometry">
            <mxPoint x="247" y="205" as="sourcePoint" />
            <mxPoint x="247" y="147" as="targetPoint" />
          </mxGeometry>
        </mxCell>
        <mxCell id="SAiguCN7g2tJS7Ev6xJh-34" value="" style="endArrow=none;html=1;" parent="1" edge="1">
          <mxGeometry width="50" height="50" relative="1" as="geometry">
            <mxPoint x="787.75" y="202" as="sourcePoint" />
            <mxPoint x="788" y="149" as="targetPoint" />
          </mxGeometry>
        </mxCell>
        <mxCell id="SAiguCN7g2tJS7Ev6xJh-35" value="" style="endArrow=none;html=1;" parent="1" edge="1">
          <mxGeometry width="50" height="50" relative="1" as="geometry">
            <mxPoint x="608.75" y="205" as="sourcePoint" />
            <mxPoint x="608.75" y="147" as="targetPoint" />
          </mxGeometry>
        </mxCell>
        <mxCell id="SAiguCN7g2tJS7Ev6xJh-36" value="" style="endArrow=none;html=1;" parent="1" edge="1">
          <mxGeometry width="50" height="50" relative="1" as="geometry">
            <mxPoint x="417" y="152" as="sourcePoint" />
            <mxPoint x="417" y="94" as="targetPoint" />
          </mxGeometry>
        </mxCell>
        <mxCell id="SAiguCN7g2tJS7Ev6xJh-45" value="" style="strokeWidth=1;html=1;shape=mxgraph.flowchart.annotation_2;align=left;labelPosition=right;pointerEvents=1;direction=south;" parent="1" vertex="1">
          <mxGeometry x="27.5" y="247" width="98.5" height="111" as="geometry" />
        </mxCell>
        <mxCell id="SAiguCN7g2tJS7Ev6xJh-46" value="" style="endArrow=none;html=1;" parent="1" edge="1">
          <mxGeometry width="50" height="50" relative="1" as="geometry">
            <mxPoint x="246" y="310" as="sourcePoint" />
            <mxPoint x="246" y="252" as="targetPoint" />
          </mxGeometry>
        </mxCell>
        <mxCell id="SAiguCN7g2tJS7Ev6xJh-47" value="" style="strokeWidth=1;html=1;shape=mxgraph.flowchart.annotation_2;align=left;labelPosition=right;pointerEvents=1;direction=south;" parent="1" vertex="1">
          <mxGeometry x="367.75" y="250" width="98.5" height="111" as="geometry" />
        </mxCell>
        <mxCell id="SAiguCN7g2tJS7Ev6xJh-52" value="" style="shape=image;html=1;verticalAlign=top;verticalLabelPosition=bottom;labelBackgroundColor=#ffffff;imageAspect=0;aspect=fixed;image=https://cdn0.iconfinder.com/data/icons/elasto-online-store/26/00-ELASTOFONT-STORE-READY_bank-128.png" parent="1" vertex="1">
          <mxGeometry x="350" y="368" width="41" height="41" as="geometry" />
        </mxCell>
        <mxCell id="SAiguCN7g2tJS7Ev6xJh-53" value="" style="shape=image;html=1;verticalAlign=top;verticalLabelPosition=bottom;labelBackgroundColor=#ffffff;imageAspect=0;aspect=fixed;image=https://cdn3.iconfinder.com/data/icons/google-material-design-icons/48/ic_payment_48px-128.png" parent="1" vertex="1">
          <mxGeometry x="446" y="362.5" width="49.5" height="49.5" as="geometry" />
        </mxCell>
        <mxCell id="SAiguCN7g2tJS7Ev6xJh-54" value="ACH" style="text;html=1;align=center;verticalAlign=middle;resizable=0;points=[];autosize=1;" parent="1" vertex="1">
          <mxGeometry x="355" y="412.5" width="36" height="18" as="geometry" />
        </mxCell>
        <mxCell id="SAiguCN7g2tJS7Ev6xJh-55" value="CC/DC" style="text;html=1;align=center;verticalAlign=middle;resizable=0;points=[];autosize=1;" parent="1" vertex="1">
          <mxGeometry x="447.5" y="412" width="48" height="18" as="geometry" />
        </mxCell>
        <mxCell id="SAiguCN7g2tJS7Ev6xJh-56" value="" style="shape=image;html=1;verticalAlign=top;verticalLabelPosition=bottom;labelBackgroundColor=#ffffff;imageAspect=0;aspect=fixed;image=https://cdn0.iconfinder.com/data/icons/elasto-online-store/26/00-ELASTOFONT-STORE-READY_bank-128.png" parent="1" vertex="1">
          <mxGeometry x="588.75" y="309" width="41" height="41" as="geometry" />
        </mxCell>
        <mxCell id="SAiguCN7g2tJS7Ev6xJh-57" value="CEFT" style="text;html=1;align=center;verticalAlign=middle;resizable=0;points=[];autosize=1;" parent="1" vertex="1">
          <mxGeometry x="588.75" y="353" width="41" height="18" as="geometry" />
        </mxCell>
        <mxCell id="SAiguCN7g2tJS7Ev6xJh-58" value="" style="endArrow=none;html=1;" parent="1" edge="1">
          <mxGeometry width="50" height="50" relative="1" as="geometry">
            <mxPoint x="609.75" y="305" as="sourcePoint" />
            <mxPoint x="609.75" y="247" as="targetPoint" />
          </mxGeometry>
        </mxCell>
        <mxCell id="SAiguCN7g2tJS7Ev6xJh-59" value="" style="shape=image;html=1;verticalAlign=top;verticalLabelPosition=bottom;labelBackgroundColor=#ffffff;imageAspect=0;aspect=fixed;image=https://cdn3.iconfinder.com/data/icons/tango-icon-library/48/process-stop-128.png;strokeColor=#000000;strokeWidth=1;" parent="1" vertex="1">
          <mxGeometry x="769" y="305" width="50" height="50" as="geometry" />
        </mxCell>
        <mxCell id="SAiguCN7g2tJS7Ev6xJh-60" value="" style="endArrow=none;html=1;" parent="1" edge="1">
          <mxGeometry width="50" height="50" relative="1" as="geometry">
            <mxPoint x="793" y="302" as="sourcePoint" />
            <mxPoint x="793" y="244" as="targetPoint" />
          </mxGeometry>
        </mxCell>
        <mxCell id="_qxQMxJ98GP6oNuMJyAR-1" value="" style="endArrow=none;dashed=1;html=1;dashPattern=1 3;strokeWidth=2;" edge="1" parent="1">
          <mxGeometry width="50" height="50" relative="1" as="geometry">
            <mxPoint x="2" y="117" as="sourcePoint" />
            <mxPoint x="848" y="117" as="targetPoint" />
          </mxGeometry>
        </mxCell>
        <mxCell id="_qxQMxJ98GP6oNuMJyAR-2" value="" style="endArrow=none;dashed=1;html=1;dashPattern=1 3;strokeWidth=2;" edge="1" parent="1" source="_qxQMxJ98GP6oNuMJyAR-6">
          <mxGeometry width="50" height="50" relative="1" as="geometry">
            <mxPoint x="4" y="472" as="sourcePoint" />
            <mxPoint x="850" y="472" as="targetPoint" />
          </mxGeometry>
        </mxCell>
        <mxCell id="_qxQMxJ98GP6oNuMJyAR-3" value="" style="endArrow=none;dashed=1;html=1;dashPattern=1 3;strokeWidth=2;" edge="1" parent="1">
          <mxGeometry width="50" height="50" relative="1" as="geometry">
            <mxPoint x="850" y="473" as="sourcePoint" />
            <mxPoint x="850" y="118" as="targetPoint" />
          </mxGeometry>
        </mxCell>
        <mxCell id="_qxQMxJ98GP6oNuMJyAR-4" value="" style="endArrow=none;dashed=1;html=1;dashPattern=1 3;strokeWidth=2;" edge="1" parent="1">
          <mxGeometry width="50" height="50" relative="1" as="geometry">
            <mxPoint y="468" as="sourcePoint" />
            <mxPoint y="116" as="targetPoint" />
          </mxGeometry>
        </mxCell>
        <mxCell id="_qxQMxJ98GP6oNuMJyAR-5" value="Billing and Currency Validation" style="text;html=1;align=center;verticalAlign=middle;resizable=0;points=[];autosize=1;" vertex="1" parent="1">
          <mxGeometry y="92" width="172" height="18" as="geometry" />
        </mxCell>
        <mxCell id="_qxQMxJ98GP6oNuMJyAR-6" value="" style="strokeWidth=1;html=1;shape=mxgraph.flowchart.annotation_2;align=left;labelPosition=right;pointerEvents=1;direction=north;" vertex="1" parent="1">
          <mxGeometry x="23" y="430.5" width="796" height="137.5" as="geometry" />
        </mxCell>
        <mxCell id="_qxQMxJ98GP6oNuMJyAR-8" value="" style="endArrow=none;dashed=1;html=1;dashPattern=1 3;strokeWidth=2;" edge="1" parent="1" target="_qxQMxJ98GP6oNuMJyAR-6">
          <mxGeometry width="50" height="50" relative="1" as="geometry">
            <mxPoint x="4" y="472" as="sourcePoint" />
            <mxPoint x="850" y="472" as="targetPoint" />
          </mxGeometry>
        </mxCell>
        <mxCell id="_qxQMxJ98GP6oNuMJyAR-9" value="Network downtime - EPS" style="rounded=1;whiteSpace=wrap;html=1;" vertex="1" parent="1">
          <mxGeometry x="298" y="568" width="246" height="43" as="geometry" />
        </mxCell>
        <mxCell id="_qxQMxJ98GP6oNuMJyAR-12" value="" style="endArrow=classic;html=1;" edge="1" parent="1">
          <mxGeometry width="50" height="50" relative="1" as="geometry">
            <mxPoint x="120" y="671" as="sourcePoint" />
            <mxPoint x="120" y="733" as="targetPoint" />
          </mxGeometry>
        </mxCell>
        <mxCell id="_qxQMxJ98GP6oNuMJyAR-13" value="" style="endArrow=none;html=1;" edge="1" parent="1">
          <mxGeometry width="50" height="50" relative="1" as="geometry">
            <mxPoint x="420.5" y="669" as="sourcePoint" />
            <mxPoint x="420.5" y="611" as="targetPoint" />
          </mxGeometry>
        </mxCell>
        <mxCell id="_qxQMxJ98GP6oNuMJyAR-14" value="" style="endArrow=none;html=1;" edge="1" parent="1">
          <mxGeometry width="50" height="50" relative="1" as="geometry">
            <mxPoint x="120" y="670" as="sourcePoint" />
            <mxPoint x="754" y="670" as="targetPoint" />
          </mxGeometry>
        </mxCell>
        <mxCell id="_qxQMxJ98GP6oNuMJyAR-15" value="" style="endArrow=classic;html=1;" edge="1" parent="1">
          <mxGeometry width="50" height="50" relative="1" as="geometry">
            <mxPoint x="420.5" y="671" as="sourcePoint" />
            <mxPoint x="420.5" y="733" as="targetPoint" />
          </mxGeometry>
        </mxCell>
        <mxCell id="_qxQMxJ98GP6oNuMJyAR-16" value="" style="endArrow=classic;html=1;" edge="1" parent="1">
          <mxGeometry width="50" height="50" relative="1" as="geometry">
            <mxPoint x="754" y="669" as="sourcePoint" />
            <mxPoint x="754" y="731" as="targetPoint" />
          </mxGeometry>
        </mxCell>
        <mxCell id="_qxQMxJ98GP6oNuMJyAR-17" value="Disable Edit/Add option for ACH." style="rounded=1;whiteSpace=wrap;html=1;" vertex="1" parent="1">
          <mxGeometry x="68.25" y="733" width="108.5" height="42" as="geometry" />
        </mxCell>
        <mxCell id="_qxQMxJ98GP6oNuMJyAR-18" value="If ACH/CEFT Down" style="text;html=1;align=center;verticalAlign=middle;resizable=0;points=[];autosize=1;" vertex="1" parent="1">
          <mxGeometry x="7" y="686" width="113" height="18" as="geometry" />
        </mxCell>
        <mxCell id="_qxQMxJ98GP6oNuMJyAR-19" value="Disable Edit/Add option for CC/ACH/CEFT." style="rounded=1;whiteSpace=wrap;html=1;" vertex="1" parent="1">
          <mxGeometry x="371" y="733" width="108.5" height="42" as="geometry" />
        </mxCell>
        <mxCell id="_qxQMxJ98GP6oNuMJyAR-20" value="If CC/ACH/CEFT Down" style="text;html=1;align=center;verticalAlign=middle;resizable=0;points=[];autosize=1;" vertex="1" parent="1">
          <mxGeometry x="287" y="683" width="135" height="18" as="geometry" />
        </mxCell>
        <mxCell id="_qxQMxJ98GP6oNuMJyAR-21" value="If CC Down" style="text;html=1;align=center;verticalAlign=middle;resizable=0;points=[];autosize=1;" vertex="1" parent="1">
          <mxGeometry x="758" y="677" width="72" height="18" as="geometry" />
        </mxCell>
        <mxCell id="_qxQMxJ98GP6oNuMJyAR-22" value="Disable Edit/Add option for CC." style="rounded=1;whiteSpace=wrap;html=1;" vertex="1" parent="1">
          <mxGeometry x="703" y="733" width="108.5" height="42" as="geometry" />
        </mxCell>
        <mxCell id="_qxQMxJ98GP6oNuMJyAR-23" value="" style="endArrow=none;dashed=1;html=1;dashPattern=1 3;strokeWidth=2;" edge="1" parent="1">
          <mxGeometry width="50" height="50" relative="1" as="geometry">
            <mxPoint x="2.25" y="550" as="sourcePoint" />
            <mxPoint x="848.25" y="550" as="targetPoint" />
          </mxGeometry>
        </mxCell>
        <mxCell id="_qxQMxJ98GP6oNuMJyAR-24" value="" style="endArrow=none;dashed=1;html=1;dashPattern=1 3;strokeWidth=2;" edge="1" parent="1">
          <mxGeometry width="50" height="50" relative="1" as="geometry">
            <mxPoint y="839" as="sourcePoint" />
            <mxPoint y="545" as="targetPoint" />
          </mxGeometry>
        </mxCell>
        <mxCell id="_qxQMxJ98GP6oNuMJyAR-26" value="" style="endArrow=none;dashed=1;html=1;dashPattern=1 3;strokeWidth=2;" edge="1" parent="1">
          <mxGeometry width="50" height="50" relative="1" as="geometry">
            <mxPoint x="2" y="837" as="sourcePoint" />
            <mxPoint x="34" y="837" as="targetPoint" />
          </mxGeometry>
        </mxCell>
        <mxCell id="_qxQMxJ98GP6oNuMJyAR-27" value="" style="endArrow=none;dashed=1;html=1;dashPattern=1 3;strokeWidth=2;" edge="1" parent="1">
          <mxGeometry width="50" height="50" relative="1" as="geometry">
            <mxPoint x="849" y="839" as="sourcePoint" />
            <mxPoint x="849" y="545" as="targetPoint" />
          </mxGeometry>
        </mxCell>
        <mxCell id="_qxQMxJ98GP6oNuMJyAR-28" value="" style="strokeWidth=1;html=1;shape=mxgraph.flowchart.annotation_2;align=left;labelPosition=right;pointerEvents=1;direction=north;" vertex="1" parent="1">
          <mxGeometry x="25.25" y="797" width="796" height="137.5" as="geometry" />
        </mxCell>
        <mxCell id="_qxQMxJ98GP6oNuMJyAR-31" value="" style="endArrow=none;dashed=1;html=1;dashPattern=1 3;strokeWidth=2;" edge="1" parent="1">
          <mxGeometry width="50" height="50" relative="1" as="geometry">
            <mxPoint x="824" y="839" as="sourcePoint" />
            <mxPoint x="850" y="839" as="targetPoint" />
          </mxGeometry>
        </mxCell>
        <mxCell id="_qxQMxJ98GP6oNuMJyAR-32" value="Get and display Payment Options by Account Number" style="rounded=1;whiteSpace=wrap;html=1;" vertex="1" parent="1">
          <mxGeometry x="305.5" y="934.5" width="246" height="43" as="geometry" />
        </mxCell>
        <mxCell id="_qxQMxJ98GP6oNuMJyAR-34" value="" style="endArrow=none;html=1;" edge="1" parent="1">
          <mxGeometry width="50" height="50" relative="1" as="geometry">
            <mxPoint x="421" y="1029" as="sourcePoint" />
            <mxPoint x="421" y="977.5" as="targetPoint" />
          </mxGeometry>
        </mxCell>
        <mxCell id="_qxQMxJ98GP6oNuMJyAR-35" value="" style="endArrow=none;html=1;" edge="1" parent="1">
          <mxGeometry width="50" height="50" relative="1" as="geometry">
            <mxPoint x="120" y="1029" as="sourcePoint" />
            <mxPoint x="730" y="1029" as="targetPoint" />
          </mxGeometry>
        </mxCell>
        <mxCell id="_qxQMxJ98GP6oNuMJyAR-36" value="" style="endArrow=classic;html=1;" edge="1" parent="1">
          <mxGeometry width="50" height="50" relative="1" as="geometry">
            <mxPoint x="621" y="1101" as="sourcePoint" />
            <mxPoint x="620.75" y="1145" as="targetPoint" />
          </mxGeometry>
        </mxCell>
        <mxCell id="_qxQMxJ98GP6oNuMJyAR-37" value="" style="endArrow=classic;html=1;" edge="1" parent="1">
          <mxGeometry width="50" height="50" relative="1" as="geometry">
            <mxPoint x="421" y="1029" as="sourcePoint" />
            <mxPoint x="421" y="1091" as="targetPoint" />
          </mxGeometry>
        </mxCell>
        <mxCell id="_qxQMxJ98GP6oNuMJyAR-38" value="" style="endArrow=classic;html=1;" edge="1" parent="1">
          <mxGeometry width="50" height="50" relative="1" as="geometry">
            <mxPoint x="120" y="1029" as="sourcePoint" />
            <mxPoint x="120" y="1091" as="targetPoint" />
          </mxGeometry>
        </mxCell>
        <mxCell id="_qxQMxJ98GP6oNuMJyAR-39" value="Add CEFT&amp;nbsp;" style="rounded=1;whiteSpace=wrap;html=1;" vertex="1" parent="1">
          <mxGeometry x="68.25" y="1090" width="108.5" height="42" as="geometry" />
        </mxCell>
        <mxCell id="_qxQMxJ98GP6oNuMJyAR-40" value="If CEFT Alowed" style="text;html=1;align=center;verticalAlign=middle;resizable=0;points=[];autosize=1;" vertex="1" parent="1">
          <mxGeometry x="30.25" y="1044" width="93" height="18" as="geometry" />
        </mxCell>
        <mxCell id="_qxQMxJ98GP6oNuMJyAR-41" value="Add ACH&amp;nbsp;" style="rounded=1;whiteSpace=wrap;html=1;" vertex="1" parent="1">
          <mxGeometry x="371" y="1093" width="108.5" height="42" as="geometry" />
        </mxCell>
        <mxCell id="_qxQMxJ98GP6oNuMJyAR-42" value="If ACH Alowed" style="text;html=1;align=center;verticalAlign=middle;resizable=0;points=[];autosize=1;" vertex="1" parent="1">
          <mxGeometry x="332" y="1041" width="87" height="18" as="geometry" />
        </mxCell>
        <mxCell id="_qxQMxJ98GP6oNuMJyAR-43" value="Add DC&amp;nbsp;" style="rounded=1;whiteSpace=wrap;html=1;" vertex="1" parent="1">
          <mxGeometry x="567" y="1144" width="108.5" height="42" as="geometry" />
        </mxCell>
        <mxCell id="_qxQMxJ98GP6oNuMJyAR-44" value="If CC Alowed" style="text;html=1;align=center;verticalAlign=middle;resizable=0;points=[];autosize=1;" vertex="1" parent="1">
          <mxGeometry x="750" y="1105" width="80" height="18" as="geometry" />
        </mxCell>
        <mxCell id="_qxQMxJ98GP6oNuMJyAR-45" value="Add CC&amp;nbsp;" style="rounded=1;whiteSpace=wrap;html=1;" vertex="1" parent="1">
          <mxGeometry x="783" y="1144" width="108.5" height="42" as="geometry" />
        </mxCell>
        <mxCell id="_qxQMxJ98GP6oNuMJyAR-46" value="" style="endArrow=classic;html=1;" edge="1" parent="1">
          <mxGeometry width="50" height="50" relative="1" as="geometry">
            <mxPoint x="833.25" y="1100" as="sourcePoint" />
            <mxPoint x="833" y="1144" as="targetPoint" />
          </mxGeometry>
        </mxCell>
        <mxCell id="_qxQMxJ98GP6oNuMJyAR-47" value="" style="endArrow=none;html=1;" edge="1" parent="1">
          <mxGeometry width="50" height="50" relative="1" as="geometry">
            <mxPoint x="621" y="1100" as="sourcePoint" />
            <mxPoint x="834" y="1100" as="targetPoint" />
          </mxGeometry>
        </mxCell>
        <mxCell id="_qxQMxJ98GP6oNuMJyAR-48" value="" style="endArrow=classic;html=1;" edge="1" parent="1">
          <mxGeometry width="50" height="50" relative="1" as="geometry">
            <mxPoint x="730" y="1028" as="sourcePoint" />
            <mxPoint x="730" y="1096" as="targetPoint" />
          </mxGeometry>
        </mxCell>
        <mxCell id="_qxQMxJ98GP6oNuMJyAR-49" value="If CC not Allowed" style="text;html=1;align=center;verticalAlign=middle;resizable=0;points=[];autosize=1;" vertex="1" parent="1">
          <mxGeometry x="623" y="1105" width="102" height="18" as="geometry" />
        </mxCell>
      </root>
    </mxGraphModel>
  </diagram>
</mxfile>
